<?xml version="1.0" encoding="UTF-8" standalone="no"?>
<!-- Created with Inkscape (http://www.inkscape.org/) --><svg height="64.000000" id="svg1466" inkscape:version="0.42" sodipodi:docbase="/home/fejack/Web/Pimp my apps/Source" sodipodi:docname="X_to_the_L-Tux.svg" sodipodi:version="0.32" version="1.0" width="64.000000" x="0.0000000" xmlns="http://www.w3.org/2000/svg" xmlns:cc="http://web.resource.org/cc/" xmlns:dc="http://purl.org/dc/elements/1.1/" xmlns:inkscape="http://www.inkscape.org/namespaces/inkscape" xmlns:rdf="http://www.w3.org/1999/02/22-rdf-syntax-ns#" xmlns:sodipodi="http://inkscape.sourceforge.net/DTD/sodipodi-0.dtd" xmlns:svg="http://www.w3.org/2000/svg" xmlns:xlink="http://www.w3.org/1999/xlink" y="0.0000000">
  <metadata>
    <rdf:RDF xmlns:cc="http://web.resource.org/cc/" xmlns:dc="http://purl.org/dc/elements/1.1/" xmlns:rdf="http://www.w3.org/1999/02/22-rdf-syntax-ns#">
      <cc:Work rdf:about="">
        <dc:title>Hip-Hop Tux</dc:title>
        <dc:description>X to the L. Tux 'representing'.</dc:description>
        <dc:subject>
          <rdf:Bag>
            <rdf:li>GNU</rdf:li>
            <rdf:li>penguin</rdf:li>
            <rdf:li>tux</rdf:li>
            <rdf:li>music</rdf:li>
            <rdf:li>rap</rdf:li>
            <rdf:li>hip-hop</rdf:li>
            <rdf:li>linux</rdf:li>
            <rdf:li>UNIX</rdf:li>
          </rdf:Bag>
        </dc:subject>
        <dc:publisher>
          <cc:Agent rdf:about="http://www.openclipart.org/">
            <dc:title>Open Clip Art Library</dc:title>
          </cc:Agent>
        </dc:publisher>
        <dc:creator>
          <cc:Agent>
            <dc:title>Francis Jacquerye</dc:title>
          </cc:Agent>
        </dc:creator>
        <dc:rights>
          <cc:Agent>
            <dc:title>Public Domain</dc:title>
          </cc:Agent>
        </dc:rights>
        <dc:date>25 May 2006</dc:date>
        <dc:format>image/svg+xml</dc:format>
        <dc:type rdf:resource="http://purl.org/dc/dcmitype/StillImage"/>
        <cc:license rdf:resource="http://web.resource.org/cc/PublicDomain"/>
        <dc:language>FR</dc:language>
      </cc:Work>
      <cc:License rdf:about="http://web.resource.org/cc/PublicDomain">
        <cc:permits rdf:resource="http://web.resource.org/cc/Reproduction"/>
        <cc:permits rdf:resource="http://web.resource.org/cc/Distribution"/>
        <cc:permits rdf:resource="http://web.resource.org/cc/DerivativeWorks"/>
      </cc:License>
    </rdf:RDF>
  </metadata>
  <sodipodi:namedview bordercolor="#666666" borderopacity="1.0" id="base" inkscape:current-layer="svg1466" inkscape:cx="32.000000" inkscape:cy="32.000000" inkscape:pageopacity="0.0" inkscape:pageshadow="2" inkscape:window-height="515" inkscape:window-width="753" inkscape:window-x="19" inkscape:window-y="18" inkscape:zoom="5.3593750" pagecolor="#ffffff"/>
  <defs id="defs1468">
    <linearGradient id="linearGradient2265">
      <stop id="stop2267" offset="0.0000000" style="stop-color:#666666;stop-opacity:1.0000000"/>
      <stop id="stop2269" offset="1.0000000" style="stop-color:#cccccc;stop-opacity:1.0000000"/>
    </linearGradient>
    <linearGradient gradientTransform="matrix(5.766652e-2,-1.199934e-8,1.199934e-8,5.766652e-2,0.437200,2.837490)" gradientUnits="userSpaceOnUse" id="linearGradient1371" x1="210.93587" x2="316.13342" xlink:href="#linearGradient2265" y1="665.39386" y2="665.39386"/>
  </defs>
  <g id="layer1">
    <path d="M 7.1865325,58.440805 C 12.860920,59.575681 18.535305,54.809196 22.847839,55.944075 C 27.160374,57.078952 30.111056,55.944075 32.607785,56.171049 C 35.104515,56.398025 40.551926,59.802657 47.361192,58.440805 C 54.170455,57.078952 48.723045,54.355246 49.857920,54.128270 C 50.992799,53.901296 53.716505,54.809196 53.716505,54.809196 C 53.716505,54.809196 55.759284,56.171049 58.029039,55.490123 C 60.298792,54.809196 63.930405,52.539443 61.433673,52.312467 C 58.936942,52.085493 44.410510,47.319005 41.005878,47.092031 C 37.601246,46.865053 25.344569,48.226908 22.166913,48.907834 C 18.989257,49.588761 11.499067,49.588761 8.7753604,51.858517 C 6.0516548,54.128270 1.9660967,57.532904 7.1865325,58.440805 z " id="path2356" style="fill:#cccccc;fill-opacity:1.0000000;fill-rule:evenodd;stroke:none;stroke-width:1.0000000px;stroke-linecap:butt;stroke-linejoin:miter;stroke-opacity:1.0000000"/>
    <path d="M 12.011852,16.321390 C 12.011852,16.321390 9.8528324,18.634624 8.6962154,21.179184 C 7.5395984,23.723741 6.6143048,25.111681 7.8480296,25.265897 C 9.0817544,25.420113 14.941948,22.567124 16.252781,21.487615 C 17.563613,20.408103 12.088959,16.552713 12.011852,16.321390 z " id="path2196" style="fill:#ff0000;fill-opacity:1.0000000;fill-rule:evenodd;stroke:#000000;stroke-width:0.36041674;stroke-linecap:butt;stroke-linejoin:miter;stroke-miterlimit:4.0000000;stroke-dasharray:none;stroke-opacity:1.0000000"/>
    <path d="M 17.561763,6.9216561 C 17.067100,6.9103151 16.605300,6.9545813 16.206596,7.0568131 C 14.080182,7.6020481 12.499332,10.110090 12.117669,11.963887 C 11.736005,13.817684 12.499165,16.925404 12.989877,19.651576 C 13.480589,22.377750 12.499710,23.850432 12.499710,23.850432 C 12.499710,23.850432 7.5928879,26.794787 6.2843235,28.103349 C 4.9757605,29.411914 2.4676351,33.663825 1.8133551,35.245007 C 1.1590729,36.826186 1.5945915,42.715987 2.9576763,42.770509 C 3.7755285,42.879557 3.9398553,39.497589 3.9398553,39.497589 C 3.9398553,39.497589 4.8109739,39.443443 5.5743024,39.279873 C 6.3149541,39.121163 6.9470229,38.586761 6.9934253,38.534775 C 7.8246040,41.097304 9.9941254,42.985863 9.8275984,37.807613 C 9.8120864,37.320188 12.553771,37.209279 12.553773,37.209279 C 12.553773,37.209279 12.336264,36.009214 11.845554,35.354934 C 11.354844,34.700654 9.3911164,33.500589 9.3911164,33.500589 C 9.3911164,33.500589 10.101097,32.955520 10.319188,32.628382 C 10.537283,32.301242 12.225795,31.155576 12.225793,31.428194 C 12.225793,31.588726 12.145414,33.714172 12.027564,35.645070 C 12.389376,36.311039 12.553773,37.209279 12.553773,37.209279 C 12.553773,37.209279 12.259517,37.235754 11.917637,37.274155 C 11.861556,37.912304 11.799919,38.419983 11.735627,38.625716 C 11.463009,39.498093 11.736089,44.405250 11.681564,45.441197 C 11.627042,46.477144 10.263072,47.512587 9.2271264,48.057822 C 8.1911814,48.603057 5.9564278,54.764677 5.5202403,55.037295 C 5.0840533,55.309912 6.7747013,55.909504 8.0287409,55.909502 C 9.2827804,55.909502 13.045073,53.402387 14.190065,53.238814 C 15.335057,53.075244 18.278992,52.310740 18.278992,52.310742 L 19.315189,47.185615 C 19.315189,47.185615 21.004752,46.368013 22.804024,45.877301 C 24.603299,45.386591 26.619915,45.986641 26.728963,46.695448 C 26.838010,47.404253 27.056860,51.602901 27.493047,51.984566 C 27.929234,52.366228 29.729140,52.638723 31.255797,52.638720 C 32.782454,52.638720 36.707270,54.656593 38.179404,54.711116 C 39.651536,54.765641 41.342938,53.347486 41.451988,52.856773 C 41.561035,52.366061 39.760584,50.621012 38.179404,49.694117 C 36.598222,48.767217 33.982350,47.403668 33.982350,47.403668 C 33.982350,47.403668 33.545366,45.986934 33.436318,45.169084 C 33.327273,44.351231 31.855137,38.625630 31.091809,36.717311 C 30.907709,36.257060 30.678469,35.555337 30.437652,34.765653 C 30.014837,35.062046 29.589902,35.259190 29.347392,35.082821 C 28.849890,34.721000 29.068588,32.683633 29.498765,31.466038 C 29.149783,30.178495 28.801361,28.865632 28.801361,28.865632 L 30.927819,29.465726 C 30.927819,29.465726 30.383253,29.903002 29.783496,30.829902 C 29.183738,31.756801 28.747632,34.646631 29.347392,35.082821 C 29.947149,35.519008 31.745966,33.610517 31.745964,33.610517 C 31.745964,33.610517 33.218560,39.279873 34.036412,39.279873 C 34.854265,39.279873 35.616840,34.264676 35.616840,34.264674 C 35.616840,34.264674 36.597927,34.426904 37.361257,34.208809 C 38.124587,33.990716 38.397455,33.392464 38.397455,33.392466 C 38.397455,33.392466 38.561364,34.210026 38.997549,34.918830 C 39.433736,35.627635 40.470187,37.318326 41.069947,37.209279 C 41.669704,37.100232 41.341598,35.518504 41.396123,33.010423 C 41.450646,30.502344 40.033496,29.139169 38.997549,26.412995 C 37.961604,23.686823 34.744254,22.759793 32.018080,22.378131 C 29.291906,21.996466 27.330062,21.341555 26.784827,20.959890 C 26.239593,20.578225 26.021751,19.433356 25.476516,17.961224 C 24.931281,16.489089 24.440525,12.617622 23.350055,10.109545 C 22.464049,8.0717283 19.705309,6.9708019 17.561763,6.9216561 z " id="path1388" style="fill:#333333;fill-opacity:1.0000000;fill-rule:evenodd;stroke:#000000;stroke-width:0.28833339;stroke-linecap:butt;stroke-linejoin:miter;stroke-miterlimit:4.0000000;stroke-dasharray:none;stroke-opacity:1.0000000"/>
    <path d="M 15.558810,16.475606 C 15.558810,16.475606 11.626313,18.403301 10.469694,20.947858 C 9.3130774,23.492415 9.4672934,23.955062 10.701019,24.109280 C 11.934744,24.263496 14.941948,22.567124 16.252781,21.487615 C 17.563613,20.408103 15.635918,16.706929 15.558810,16.475606 z " id="path2198" style="fill:#000000;fill-opacity:0.49803922;fill-rule:evenodd;stroke:none;stroke-width:1.0000000px;stroke-linecap:butt;stroke-linejoin:miter;stroke-opacity:0.49803922"/>
    <path d="M 25.912008,20.360733 C 27.329618,21.723818 26.239148,21.396678 27.765807,21.778343 C 29.292462,22.160007 32.945534,23.032382 34.254098,23.359522 C 35.562662,23.686662 37.416459,24.504514 38.070739,25.594984 C 38.725022,26.685454 38.943116,27.285213 38.943116,27.285213 C 38.943116,27.285213 39.161209,26.194741 37.361935,25.540461 C 35.562662,24.886179 32.672918,24.177374 30.873644,23.686662 C 29.074370,23.195952 27.929377,23.523092 26.348198,22.432623 C 24.767016,21.342155 25.203203,21.233108 24.930586,19.379309 C 24.657969,17.525512 24.821541,13.926965 23.240359,12.727448 C 21.659179,11.527931 18.660388,10.601034 18.551343,9.9467506 C 18.442295,9.2924709 18.660388,7.9293839 17.733491,7.5477191 C 16.806591,7.1660541 15.498027,7.5477191 15.498027,7.5477191 C 15.498027,7.5477191 19.096578,6.5662967 20.677757,7.8203365 C 22.258937,9.0743761 23.349406,10.982698 23.840116,12.509355 C 24.330829,14.036010 25.421298,19.433833 25.912008,20.360733 z " id="path2142" style="fill:#7f7f7f;fill-opacity:1.0000000;fill-rule:evenodd;stroke:none;stroke-width:1.0000000px;stroke-linecap:butt;stroke-linejoin:miter;stroke-opacity:1.0000000"/>
    <path d="M 35.835278,27.884971 C 35.835278,27.884971 33.218151,27.994016 32.672918,29.193533 C 32.127684,30.393048 33.327198,32.792082 33.327198,32.792082 C 33.327198,32.792082 33.000058,30.502095 33.981481,29.520673 C 34.962903,28.539251 35.835278,27.666876 35.835278,27.884971 z " id="path2144" style="fill:#7f7f7f;fill-opacity:1.0000000;fill-rule:evenodd;stroke:none;stroke-width:1.0000000px;stroke-linecap:butt;stroke-linejoin:miter;stroke-opacity:1.0000000"/>
    <path d="M 13.807802,20.796920 C 13.807802,20.796920 14.353037,23.086905 13.044472,24.068327 C 11.735910,25.049749 8.3554554,26.685454 6.3926119,28.975438 C 4.4297667,31.265425 2.3578749,34.863973 2.3578749,35.300161 C 2.3578749,35.736348 6.5016582,35.736348 7.1559393,34.427784 C 7.8102215,33.119222 5.4111889,34.318739 5.6292822,32.901127 C 5.8473771,31.483517 5.9564234,29.738768 8.3554554,28.212111 C 10.754487,26.685454 14.134942,25.813079 14.134942,25.813079 C 14.134942,25.813079 13.480660,25.485937 13.807802,23.850234 C 14.134942,22.214530 13.807802,21.124060 13.807802,20.796920 z " id="path2146" style="fill:#7f7f7f;fill-opacity:1.0000000;fill-rule:evenodd;stroke:none;stroke-width:1.0000000px;stroke-linecap:butt;stroke-linejoin:miter;stroke-opacity:1.0000000"/>
    <path d="M 20.241570,24.940704 C 25.366773,24.068327 27.111525,27.230688 26.566290,28.430205 C 26.021056,29.629720 26.675338,31.592565 27.111525,32.355892 C 27.547713,33.119222 27.329618,33.882549 27.111525,34.645879 C 26.893430,35.409208 27.220573,35.409208 27.765807,36.281583 C 28.311042,37.153958 29.292462,39.552990 28.420087,39.989177 C 27.547713,40.425364 24.276306,41.952021 21.986319,42.497256 C 19.696335,43.042491 14.353037,41.188692 13.916847,40.316317 C 13.480660,39.443942 14.789224,37.263005 14.789224,36.826816 C 14.789224,36.390628 12.172097,33.337314 13.480660,33.337314 C 14.789224,33.337314 15.007317,30.611142 14.571129,30.174955 C 14.134942,29.738768 13.589707,27.339736 15.225411,26.467361 C 16.861114,25.594984 17.188256,25.485937 20.241570,24.940704 z " id="path2148" style="fill:#cccccc;fill-opacity:1.0000000;fill-rule:evenodd;stroke:#000000;stroke-width:0.36041674;stroke-linecap:butt;stroke-linejoin:miter;stroke-miterlimit:4.0000000;stroke-dasharray:none;stroke-opacity:1.0000000"/>
    <path d="M 12.088836,28.195256 C 12.088836,28.195256 11.780145,29.429896 9.8524494,30.200974 C 7.9247546,30.972052 7.3079076,31.819246 7.3079076,31.819246 C 7.3079076,31.819246 8.3878434,31.819732 8.8504914,32.282381 C 9.3131384,32.745028 9.1586474,33.516810 9.1586474,33.516810 L 9.5190634,33.583488 C 9.5051534,33.574903 9.3911164,33.500589 9.3911164,33.500589 C 9.3911164,33.500589 10.101097,32.955520 10.319188,32.628382 C 10.537283,32.301242 12.225795,31.155576 12.225793,31.428194 C 12.225793,31.521507 12.194194,32.326984 12.148304,33.323987 C 12.448853,33.204579 12.681626,33.063337 12.705149,32.898694 C 12.782256,32.358939 13.399821,30.971885 13.939575,30.894777 C 14.479330,30.817670 13.476882,30.355190 12.474481,30.200974 C 11.472079,30.046759 12.088836,28.195256 12.088836,28.195256 z " id="path2160" style="fill:#000000;fill-opacity:1.0000000;fill-rule:evenodd;stroke:none;stroke-width:5.0000000;stroke-linecap:butt;stroke-linejoin:miter;stroke-miterlimit:4.0000000;stroke-dasharray:none;stroke-opacity:1.0000000"/>
    <path d="M 9.4704074,35.917186 C 8.5812574,35.859355 8.2341784,36.235335 8.2341784,36.524487 C 8.2341784,36.910026 8.6953434,37.604040 9.3893134,37.989582 C 10.083284,38.375121 9.4680554,37.526064 10.084918,37.448956 C 10.141154,37.441927 10.186020,37.471990 10.225481,37.517435 C 10.525302,37.420618 10.935382,37.357519 11.344575,37.310195 C 11.420998,36.874833 11.350506,36.394740 10.546251,36.138840 C 10.122159,36.003901 9.7667904,35.936460 9.4704074,35.917186 z M 6.5888761,36.661446 C 6.5274312,36.691566 6.4802049,36.793050 6.4609274,36.985821 C 6.3838196,37.756899 6.3834390,38.528406 6.3834390,38.528403 C 6.3834390,38.528403 4.7631503,38.837217 3.9920723,38.605894 C 3.2209965,38.374571 2.6044685,36.985818 2.6044685,36.985821 C 2.6044685,36.985821 2.8362803,37.988651 3.0676037,38.528403 C 3.2989293,39.068158 3.0668403,40.687347 2.9126247,42.152395 C 2.8883125,42.383353 2.8290269,42.563305 2.7504363,42.711041 C 2.8171843,42.744932 2.8857407,42.767632 2.9576763,42.770509 C 3.7755285,42.879557 3.9398135,39.497926 3.9398135,39.497924 C 3.9398135,39.497924 4.8109739,39.443443 5.5743024,39.279873 C 6.3149541,39.121163 6.9461396,38.587599 6.9925420,38.535613 C 7.6207509,40.472376 9.0131004,42.017482 9.5839384,40.424196 C 9.1206074,40.180720 8.5596454,39.876491 8.1566896,39.607853 C 7.4627183,39.145206 7.0772409,38.605300 7.0772409,37.757112 C 7.0772409,37.120973 6.7732119,36.571083 6.5888761,36.661446 z " id="path2157" style="fill:#000000;fill-opacity:1.0000000;fill-rule:evenodd;stroke:none;stroke-width:5.0000000;stroke-linecap:butt;stroke-linejoin:miter;stroke-miterlimit:4.0000000;stroke-dasharray:none;stroke-opacity:1.0000000"/>
    <path d="M 26.817266,25.189381 C 26.817266,25.189381 27.279577,26.730481 28.204870,27.887100 C 28.607675,28.390605 28.815287,28.695222 28.943725,28.905278 L 30.689944,29.399048 C 30.924174,29.251897 31.165291,29.063913 31.365725,28.813371 C 31.982587,28.042293 34.681560,26.962632 34.681560,26.962632 C 34.681560,26.962632 33.910220,26.807820 32.445172,26.113850 C 30.980124,25.419879 26.817266,25.189379 26.817266,25.189381 z " id="path2165" style="fill:#000000;fill-opacity:1.0000000;fill-rule:evenodd;stroke:none;stroke-width:5.0000000;stroke-linecap:butt;stroke-linejoin:miter;stroke-miterlimit:4.0000000;stroke-dasharray:none;stroke-opacity:1.0000000"/>
    <path d="M 19.337093,17.786438 C 16.484104,18.171977 15.790134,21.179184 16.869643,22.490016 C 17.949152,23.800849 19.087643,24.320190 20.493710,24.109280 C 22.035868,23.877957 22.806946,21.796044 22.729838,20.253888 C 22.652730,18.711732 22.190081,18.326193 21.573221,18.094869 C 20.956356,17.863546 21.187680,17.323791 19.337093,17.786438 z " id="path2168" style="fill:#ffff00;fill-opacity:1.0000000;fill-rule:evenodd;stroke:#000000;stroke-width:0.36041674;stroke-linecap:butt;stroke-linejoin:miter;stroke-miterlimit:4.0000000;stroke-dasharray:none;stroke-opacity:1.0000000"/>
    <path d="M 16.946751,21.564723 C 16.946751,21.564723 18.411799,20.176780 19.799739,19.714133 C 21.187680,19.251486 22.344299,20.485211 22.344299,20.485211" id="path2170" style="fill:none;fill-opacity:0.75000000;fill-rule:evenodd;stroke:#000000;stroke-width:0.36041674;stroke-linecap:butt;stroke-linejoin:miter;stroke-miterlimit:4.0000000;stroke-dasharray:none;stroke-opacity:1.0000000"/>
    <path d="M 18.221325,6.1161261 C 17.231424,6.1212477 16.112227,6.3929323 14.864044,7.0676261 C 9.1580654,10.151939 12.396990,16.321326 12.396990,16.321326 C 12.242775,16.398434 12.706293,16.706485 12.937616,16.243838 C 13.168939,15.781191 18.875086,11.309733 21.342536,11.309733 C 23.809985,11.309733 24.272722,12.003534 24.272722,12.003534 C 24.272722,12.003534 24.195509,11.000980 23.887078,10.152795 C 23.646116,9.4901475 21.756688,6.0978309 18.221325,6.1161261 z M 19.423315,7.9019895 C 19.593043,7.8935569 19.769998,7.8971297 19.953128,7.9164061 C 21.418178,8.0706217 22.652651,8.7651881 22.652651,8.7651881 L 23.423940,10.230283 C 23.423940,10.230283 22.961203,9.3812277 20.493754,9.6896566 C 18.026304,9.9980876 17.486076,11.077261 17.486076,11.077261 L 17.641055,10.460951 L 17.408586,8.6102091 C 17.408588,8.6102091 18.235223,7.9610265 19.423315,7.9019895 z " id="path2191" style="fill:#ff0000;fill-opacity:1.0000000;fill-rule:evenodd;stroke:#000000;stroke-width:0.36041674;stroke-linecap:butt;stroke-linejoin:miter;stroke-miterlimit:4.0000000;stroke-dasharray:none;stroke-opacity:1.0000000"/>
    <path d="M 25.680100,10.789721 C 24.117822,11.390215 21.278159,12.419472 18.530852,13.040761 C 15.879995,13.640235 12.773951,13.596206 10.964678,13.499714 C 10.685322,14.583221 10.617688,15.738328 10.814234,16.912451 C 11.048167,18.309915 11.622705,19.565981 12.436522,20.611298 C 12.659054,20.626579 12.894078,20.620894 13.148717,20.587091 C 17.661106,19.988088 17.913158,16.349383 19.294782,16.196283 C 20.676406,16.043182 20.145093,17.071715 24.037357,17.905595 C 25.324529,18.181358 26.216482,18.126765 26.842967,17.932930 C 27.199800,16.755593 27.306212,15.482858 27.089457,14.188017 C 26.877058,12.919182 26.378014,11.773579 25.680100,10.789721 z " id="path2179" style="fill:#7f7f7f;fill-opacity:1.0000000;fill-rule:nonzero;stroke:#000000;stroke-width:0.36041674;stroke-linejoin:bevel;stroke-miterlimit:4.0000000;stroke-dasharray:none;stroke-opacity:1.0000000"/>
    <path d="M 11.742836,13.526294 C 11.492235,14.335925 11.317269,15.473629 11.625700,16.784461 C 12.027489,18.492064 12.979860,19.794539 13.598980,20.503964 C 13.654906,20.493285 13.713871,20.484976 13.768378,20.473327 C 13.468832,19.932780 13.141299,19.130590 13.323263,18.402733 C 13.631694,17.169006 12.937341,15.705075 13.245772,14.625564 C 13.352507,14.251997 13.464545,13.880932 13.503471,13.542513 C 12.859197,13.549454 12.276624,13.545192 11.742836,13.526294 z " id="path2181" style="fill:#ffffff;fill-opacity:1.0000000;fill-rule:evenodd;stroke:none;stroke-width:1.0000000px;stroke-linecap:butt;stroke-linejoin:miter;stroke-opacity:1.0000000"/>
    <path d="M 24.775504,11.127720 C 24.617610,11.186093 24.494280,11.233523 24.323181,11.295314 C 24.832963,12.035555 25.230556,13.543373 25.582838,15.011211 C 25.839558,16.080879 25.721270,17.286974 25.613473,18.090973 C 25.699895,18.091409 25.777665,18.085420 25.858557,18.081962 C 26.089799,17.210810 26.267539,15.815067 26.045973,13.931763 C 25.901904,12.707168 25.336411,11.780302 24.775504,11.127720 z " id="path2183" style="fill:#000000;fill-opacity:1.0000000;fill-rule:evenodd;stroke:none;stroke-width:1.0000000px;stroke-linecap:butt;stroke-linejoin:miter;stroke-opacity:1.0000000"/>
    <path d="M 30.826157,25.497220 C 30.826157,25.497220 30.132187,26.268298 30.055079,27.579131 C 29.977971,28.889964 30.055079,28.967071 30.055079,28.967071 L 31.134588,29.352610 C 31.134588,29.352610 30.594834,28.812856 30.980373,27.810454 C 31.365912,26.808053 32.136990,26.422514 32.136990,26.422514 L 30.826157,25.497220 z " id="path2208" style="fill:#ffffff;fill-opacity:1.0000000;fill-rule:evenodd;stroke:#000000;stroke-width:0.36041674;stroke-linecap:butt;stroke-linejoin:miter;stroke-miterlimit:4.0000000;stroke-dasharray:none;stroke-opacity:1.0000000"/>
    <path d="M 607.05673 361.06628 A 44.125271 34.765366 0 1 1  518.80619,361.06628 A 44.125271 34.765366 0 1 1  607.05673 361.06628 z" id="path2204" style="fill:#ffffff;fill-opacity:1.0000000;fill-rule:nonzero;stroke:#000000;stroke-width:4.3020153;stroke-linejoin:bevel;stroke-miterlimit:4.0000000;stroke-dasharray:none;stroke-opacity:1.0000000" transform="matrix(6.890246e-2,0.000000,0.000000,7.496192e-2,-5.608701,-2.803381)"/>
    <path d="M 607.05673 361.06628 A 44.125271 34.765366 0 1 1  518.80619,361.06628 A 44.125271 34.765366 0 1 1  607.05673 361.06628 z" id="path2202" style="fill:#ffffff;fill-opacity:1.0000000;fill-rule:nonzero;stroke:#000000;stroke-width:5.0000000;stroke-linejoin:bevel;stroke-miterlimit:4.0000000;stroke-dasharray:none;stroke-opacity:1.0000000" transform="matrix(5.766662e-2,0.000000,0.000000,5.766662e-2,0.754116,3.441979)"/>
    <path d="M 621.76515 409.87149 A 13.371294 11.365600 0 1 1  595.02257,409.87149 A 13.371294 11.365600 0 1 1  621.76515 409.87149 z" id="path2206" style="fill:#ffffff;fill-opacity:1.0000000;fill-rule:nonzero;stroke:#000000;stroke-width:5.0000000;stroke-linejoin:bevel;stroke-miterlimit:4.0000000;stroke-dasharray:none;stroke-opacity:1.0000000" transform="matrix(5.766662e-2,0.000000,0.000000,5.766662e-2,0.831226,2.748033)"/>
    <path d="M 26.633452,34.461101 C 24.599735,34.441824 22.228786,34.518875 20.879400,34.904414 C 18.180625,35.675490 10.854407,38.296699 10.854407,38.450915 L 11.086876,40.456635 L 18.565524,41.613571 L 31.288234,38.683385 C 31.288234,38.683385 30.904011,36.369018 30.826903,35.906371 C 30.763519,35.526079 30.530598,34.983532 30.435851,34.767455 C 30.013932,35.062413 29.589724,35.259063 29.347392,35.082821 C 29.222375,34.991899 29.143051,34.792410 29.100506,34.529580 C 28.436733,34.500181 27.581555,34.470088 26.633452,34.461101 z " id="path2321" style="fill:#ffffff;fill-opacity:1.0000000;fill-rule:evenodd;stroke:#000000;stroke-width:0.36041674;stroke-linecap:butt;stroke-linejoin:miter;stroke-miterlimit:4.0000000;stroke-dasharray:none;stroke-opacity:1.0000000"/>
    <g id="g2232" transform="matrix(5.766662e-2,0.000000,0.000000,5.766662e-2,0.831226,2.748033)">
      <path d="M 378.40763 496.11633 A 38.108189 33.428234 0 1 1  302.19125,496.11633 A 38.108189 33.428234 0 1 1  378.40763 496.11633 z" id="path2200" style="fill:#ffffff;fill-opacity:1.0000000;fill-rule:nonzero;stroke:#000000;stroke-width:5.0000000;stroke-linejoin:bevel;stroke-miterlimit:4.0000000;stroke-dasharray:none;stroke-opacity:1.0000000"/>
      <path d="M 320.91106 456.00247 A 13.371294 13.371294 0 1 1  294.16847,456.00247 A 13.371294 13.371294 0 1 1  320.91106 456.00247 z" id="path2210" style="fill:#ffffff;fill-opacity:1.0000000;fill-rule:nonzero;stroke:#000000;stroke-width:6.2500000;stroke-linejoin:bevel;stroke-miterlimit:4.0000000;stroke-dasharray:none;stroke-opacity:1.0000000"/>
      <path d="M 290.15707 442.63116 A 11.365600 12.034164 0 1 1  267.42587,442.63116 A 11.365600 12.034164 0 1 1  290.15707 442.63116 z" id="path2212" style="fill:#ffffff;fill-opacity:1.0000000;fill-rule:nonzero;stroke:#000000;stroke-width:6.2500000;stroke-linejoin:bevel;stroke-miterlimit:4.0000000;stroke-dasharray:none;stroke-opacity:1.0000000"/>
      <path d="M 263.41449 428.59131 A 12.702729 12.702729 0 1 1  238.00903,428.59131 A 12.702729 12.702729 0 1 1  263.41449 428.59131 z" id="path2214" style="fill:#ffffff;fill-opacity:1.0000000;fill-rule:nonzero;stroke:#000000;stroke-width:6.2500000;stroke-linejoin:bevel;stroke-miterlimit:4.0000000;stroke-dasharray:none;stroke-opacity:1.0000000"/>
      <path d="M 240.68329 405.86011 A 13.371294 12.702729 0 1 1  213.94070,405.86011 A 13.371294 12.702729 0 1 1  240.68329 405.86011 z" id="path2216" style="fill:#ffffff;fill-opacity:1.0000000;fill-rule:nonzero;stroke:#000000;stroke-width:6.2500000;stroke-linejoin:bevel;stroke-miterlimit:4.0000000;stroke-dasharray:none;stroke-opacity:1.0000000"/>
      <path d="M 219.28923 386.47174 A 12.034164 10.697036 0 1 1  195.22090,386.47174 A 12.034164 10.697036 0 1 1  219.28923 386.47174 z" id="path2218" style="fill:#ffffff;fill-opacity:1.0000000;fill-rule:nonzero;stroke:#000000;stroke-width:6.2500000;stroke-linejoin:bevel;stroke-miterlimit:4.0000000;stroke-dasharray:none;stroke-opacity:1.0000000"/>
      <path d="M 375.73337 452.65964 A 12.702729 12.702729 0 1 1  350.32791,452.65964 A 12.702729 12.702729 0 1 1  375.73337 452.65964 z" id="path2220" style="fill:#ffffff;fill-opacity:1.0000000;fill-rule:nonzero;stroke:#000000;stroke-width:6.2500000;stroke-linejoin:bevel;stroke-miterlimit:4.0000000;stroke-dasharray:none;stroke-opacity:1.0000000"/>
      <path d="M 398.46456 432.60269 A 13.371294 12.702729 0 1 1  371.72197,432.60269 A 13.371294 12.702729 0 1 1  398.46456 432.60269 z" id="path2222" style="fill:#ffffff;fill-opacity:1.0000000;fill-rule:nonzero;stroke:#000000;stroke-width:6.2500000;stroke-linejoin:bevel;stroke-miterlimit:4.0000000;stroke-dasharray:none;stroke-opacity:1.0000000"/>
      <path d="M 415.84726 409.87149 A 11.365600 12.702729 0 1 1  393.11606,409.87149 A 11.365600 12.702729 0 1 1  415.84726 409.87149 z" id="path2224" style="fill:#ffffff;fill-opacity:1.0000000;fill-rule:nonzero;stroke:#000000;stroke-width:6.2500000;stroke-linejoin:bevel;stroke-miterlimit:4.0000000;stroke-dasharray:none;stroke-opacity:1.0000000"/>
      <path d="M 434.56706 382.46033 A 13.371294 13.371294 0 1 1  407.82448,382.46033 A 13.371294 13.371294 0 1 1  434.56706 382.46033 z" id="path2226" style="fill:#ffffff;fill-opacity:1.0000000;fill-rule:nonzero;stroke:#000000;stroke-width:6.2500000;stroke-linejoin:bevel;stroke-miterlimit:4.0000000;stroke-dasharray:none;stroke-opacity:1.0000000" transform="translate(6.685647,4.011388)"/>
      <path d="M 458.63541 360.39771 A 11.365600 12.702729 0 1 1  435.90421,360.39771 A 11.365600 12.702729 0 1 1  458.63541 360.39771 z" id="path2228" style="fill:#ffffff;fill-opacity:1.0000000;fill-rule:nonzero;stroke:#000000;stroke-width:6.2500000;stroke-linejoin:bevel;stroke-miterlimit:4.0000000;stroke-dasharray:none;stroke-opacity:1.0000000"/>
      <path d="M 474.68094 334.32367 A 11.365600 10.697036 0 1 1  451.94974,334.32367 A 11.365600 10.697036 0 1 1  474.68094 334.32367 z" id="path2230" style="fill:#ffffff;fill-opacity:1.0000000;fill-rule:nonzero;stroke:#000000;stroke-width:6.2500000;stroke-linejoin:bevel;stroke-miterlimit:4.0000000;stroke-dasharray:none;stroke-opacity:1.0000000"/>
    </g>
    <path d="M 15.867242,35.983883 L 19.568416,42.075400 L 25.505719,41.227214 L 26.431012,33.901973 L 15.867242,35.983883 z " id="path2323" style="fill:#ffffff;fill-opacity:1.0000000;fill-rule:evenodd;stroke:#000000;stroke-width:0.36041674;stroke-linecap:butt;stroke-linejoin:miter;stroke-miterlimit:4.0000000;stroke-dasharray:none;stroke-opacity:1.0000000"/>
    <path d="M 33.910267,45.623208 C 33.910267,45.623208 31.750670,47.550124 30.516945,48.012771 C 29.283218,48.475417 26.739778,47.088300 26.739776,47.088302 C 25.982487,47.971807 26.253145,49.923795 26.251411,50.989814 C 26.600102,50.869117 27.263921,50.708645 28.204870,50.865470 C 29.592811,51.096793 29.283326,52.407016 30.902589,52.561232 C 32.521853,52.715450 33.757136,52.717080 35.222184,53.256837 C 36.687232,53.796591 38.150890,54.488865 39.307509,53.640680 C 40.464124,52.792494 41.159073,52.947046 40.233779,52.253076 C 39.308486,51.559106 38.691410,50.480206 39.462486,50.557314 C 39.913290,50.602394 40.190943,50.362284 40.842882,50.274387 C 40.818251,50.237385 40.797600,50.209821 40.772603,50.171667 C 39.307553,47.935540 33.910267,45.623208 33.910267,45.623208 z M 10.892252,46.192667 C 10.234425,46.170979 9.9884264,46.604850 9.6992724,46.778344 C 9.3137344,47.009667 7.2318987,49.555297 6.0752817,50.634804 C 5.4721072,51.197767 4.9361143,52.366224 4.6228035,53.489304 C 5.0319947,53.441613 5.4736399,53.462015 5.9203027,53.640680 C 7.4624598,54.257542 6.8465126,55.338624 7.9260218,55.415732 C 9.0055324,55.492840 11.704274,54.104365 13.015107,53.487502 C 14.325939,52.870640 14.710149,51.944537 16.020982,51.867429 C 17.234203,51.796063 18.316957,50.605993 19.816169,50.856461 C 19.807294,50.730165 19.799953,50.604182 19.799953,50.479823 C 19.799953,49.323208 18.488033,47.704614 18.488033,47.704614 C 18.565143,47.781722 17.100661,47.241968 15.327179,47.704614 C 13.553700,48.167261 13.014022,46.932454 11.703189,46.392697 C 11.375481,46.257758 11.111527,46.199896 10.892252,46.192667 z " id="path2273" style="fill:#ffffff;fill-opacity:1.0000000;fill-rule:evenodd;stroke:#000000;stroke-width:0.36041674;stroke-linecap:butt;stroke-linejoin:miter;stroke-miterlimit:4.0000000;stroke-dasharray:none;stroke-opacity:1.0000000"/>
    <path d="M 11.163666,40.764567 C 11.163666,40.764567 16.021457,39.607950 21.264788,38.682656 C 26.508120,37.757363 31.134588,37.063393 31.134588,37.063393 C 31.134588,37.063393 32.676744,39.299519 32.985178,40.301920 C 33.293609,41.304322 33.216501,42.460939 33.987577,41.998292 C 34.758657,41.535645 35.375517,41.227214 35.221304,41.921184 C 35.067088,42.615154 33.524930,43.848879 34.296010,44.003097 C 35.067088,44.157310 35.683951,45.082604 34.912873,45.313929 C 34.141795,45.545251 31.982776,47.241622 31.211696,48.166918 C 30.440618,49.092212 29.746648,49.477752 28.281600,49.786183 C 26.816551,50.094614 26.508120,51.251231 26.739444,50.557261 C 26.970767,49.863291 26.970767,49.400644 26.353905,49.709075 C 25.737042,50.017506 25.197288,49.940398 25.505719,49.554859 C 25.814150,49.169319 26.585228,48.244026 25.891258,48.321134 C 25.197288,48.398241 24.503317,48.552457 24.503317,48.552457 C 24.503317,48.552457 23.732239,47.164517 24.657533,46.933193 C 25.582827,46.701870 26.739444,46.624762 26.739444,46.624762 C 26.739444,46.624762 25.505719,46.162115 22.421407,46.624762 C 19.337093,47.087409 18.874448,47.781377 18.874448,47.781377 L 19.722634,48.475349 L 19.105769,49.863291 C 19.105769,49.863291 16.329888,50.403045 13.862439,49.092212 C 11.394988,47.781377 9.5444014,46.778975 9.5444014,46.778975 C 9.5444014,46.778975 10.007048,46.239223 9.6986164,45.930790 C 9.3901864,45.622361 8.5419994,45.391037 9.0046464,45.236822 C 9.4672934,45.082604 10.855233,44.157310 10.932341,43.848879 C 11.009449,43.540448 9.2359704,43.694663 9.6215094,43.000693 C 10.007048,42.306723 10.932341,42.075400 11.009449,41.766968 C 11.086557,41.458537 11.009449,40.841675 11.163666,40.764567 z " id="path2254" style="fill:#556b2f;fill-opacity:1.0000000;fill-rule:evenodd;stroke:#000000;stroke-width:0.36041674;stroke-linecap:butt;stroke-linejoin:miter;stroke-miterlimit:4.0000000;stroke-dasharray:none;stroke-opacity:1.0000000"/>
    <path d="M 26.489286,33.727654 C 25.023184,33.702805 23.154546,33.782614 20.928056,34.100686 C 17.105483,34.646765 14.101915,35.889477 12.433033,36.710101 C 12.508363,36.988595 12.553773,37.209279 12.553773,37.209279 C 12.553771,37.209279 11.931868,37.240264 11.285106,37.319206 C 11.197472,37.371342 10.980554,37.494007 10.980554,37.494007 L 10.904867,38.881613 C 10.904867,38.881613 15.992393,36.721737 20.773077,35.796446 C 24.161532,35.140617 27.708770,35.105861 29.507776,35.140487 C 29.448975,35.132026 29.394023,35.116734 29.347392,35.082821 C 29.136711,34.929597 29.060149,34.468741 29.068069,33.904256 C 28.439810,33.824553 27.592335,33.746349 26.489286,33.727654 z M 30.518744,34.707987 C 30.193151,34.945868 29.862968,35.128812 29.605089,35.142289 C 30.289353,35.156811 30.720579,35.180133 30.720579,35.180133 L 30.518744,34.707987 z " id="path2319" style="fill:#ffffff;fill-opacity:1.0000000;fill-rule:evenodd;stroke:#000000;stroke-width:0.36041674;stroke-linecap:butt;stroke-linejoin:miter;stroke-miterlimit:4.0000000;stroke-dasharray:none;stroke-opacity:1.0000000"/>
    <path d="M 40.842882,50.274387 C 40.190943,50.362284 39.913290,50.602394 39.462486,50.557314 C 38.691410,50.480206 39.308486,51.559106 40.233779,52.253076 C 41.159073,52.947046 40.464124,52.792494 39.307509,53.640680 C 38.150890,54.488865 36.687232,53.796591 35.222184,53.256837 C 33.757136,52.717080 32.521853,52.715450 30.902589,52.561232 C 29.283326,52.407016 29.592811,51.096793 28.204870,50.865470 C 27.263921,50.708645 26.600102,50.869117 26.251411,50.989814 C 26.251026,51.226312 26.241152,51.433268 26.199152,51.559273 C 25.967827,52.253243 26.276748,52.177218 26.662285,52.871190 C 27.047824,53.565160 29.900188,53.795278 30.902589,53.718168 C 31.904991,53.641060 31.520261,54.336007 32.522663,54.644441 C 33.525064,54.952872 35.683882,55.491419 38.305550,55.491419 C 40.927215,55.491419 40.927521,54.643081 42.007030,53.640680 C 43.068119,52.655381 42.261867,52.405908 40.842882,50.274387 z M 19.282755,50.820418 C 18.049085,50.876705 17.086035,51.804777 16.020982,51.867429 C 14.710149,51.944537 14.325939,52.870640 13.015107,53.487502 C 11.704274,54.104365 9.0055324,55.492840 7.9260218,55.415732 C 6.8465126,55.338624 7.4624598,54.257542 5.9203027,53.640680 C 5.4736399,53.462015 5.0319947,53.441613 4.6228035,53.489304 C 4.3353229,54.519786 4.2338325,55.511799 4.4552097,55.954554 C 4.9178565,56.879847 6.9226887,56.957171 8.4648454,56.725847 C 10.007001,56.494524 12.628635,55.030149 13.553928,53.950638 C 14.479222,52.871128 14.479651,53.564720 15.096513,53.873149 C 15.713376,54.181580 19.182705,53.256073 19.722462,53.101856 C 20.204183,52.964221 19.889845,51.904792 19.816169,50.856461 C 19.633074,50.825870 19.454379,50.812588 19.282755,50.820418 z " id="path2282" style="fill:#000000;fill-opacity:1.0000000;fill-rule:evenodd;stroke:none;stroke-width:1.0000000px;stroke-linecap:butt;stroke-linejoin:miter;stroke-opacity:1.0000000"/>
    <path d="M 32.704673,39.652905 C 32.663619,39.869592 32.610082,40.104398 32.522663,40.379145 C 31.982908,42.075516 31.288447,43.077902 32.059528,42.923687 C 32.518129,42.831969 32.908866,42.357200 33.382258,41.858656 C 33.217649,41.522478 33.166717,40.889637 32.985798,40.301654 C 32.930158,40.120827 32.824314,39.893662 32.704673,39.652905 z M 34.986111,42.388468 C 34.810496,42.431085 34.634716,42.498552 34.450892,42.615530 C 33.602709,43.155287 32.522174,44.156800 32.059528,44.619447 C 31.596881,45.082093 31.905906,45.545231 32.908310,45.082584 C 33.667651,44.732117 33.631958,43.853140 34.139130,43.613884 C 34.279847,43.284775 34.704625,42.813317 34.986111,42.388468 z M 12.528544,42.804750 C 12.307895,42.810679 12.055376,42.871056 11.780679,43.001175 C 11.148470,43.300643 10.591338,43.464627 10.090324,43.549008 C 10.493156,43.648637 10.972928,43.684033 10.931898,43.848155 C 10.884383,44.038213 10.343396,44.451472 9.8236164,44.785239 C 10.819809,45.018095 11.561514,45.024132 12.705149,44.388781 C 13.832849,43.762280 13.484692,42.779052 12.528544,42.804750 z M 25.663932,43.676958 C 25.588932,43.688402 25.487111,43.742133 25.352172,43.848155 C 24.677478,44.378269 24.212202,45.691579 23.789765,46.470188 C 24.268681,46.432907 24.692187,46.418985 25.045818,46.423332 C 25.466365,45.371308 26.159845,43.601276 25.663932,43.676958 z M 19.845004,44.138291 C 19.662024,44.112707 19.535167,44.206031 19.491794,44.466269 C 19.306260,45.579483 20.505678,46.591456 20.472128,47.028834 C 20.964283,46.889011 21.592882,46.749531 22.421983,46.625167 C 22.490766,46.614849 22.546054,46.611153 22.613005,46.601739 C 21.836209,45.794326 20.494662,44.229123 19.845004,44.138291 z M 27.511067,45.160072 C 26.763666,45.201595 25.977034,45.928458 25.456692,46.437749 C 26.335777,46.484422 26.739776,46.625167 26.739776,46.625167 C 26.739776,46.625167 25.852901,46.690538 25.009775,46.861240 C 24.939685,46.915939 24.889567,46.938561 24.889035,46.886470 C 24.812189,46.903148 24.732938,46.914680 24.658369,46.933323 C 24.469404,46.980564 24.353819,47.077986 24.285337,47.200031 C 25.256624,47.157052 26.015910,47.073234 27.125423,46.547678 C 28.590471,45.853708 28.899008,45.082965 27.511067,45.160072 z M 17.136472,45.731333 C 17.072127,45.737865 17.009902,45.752288 16.947252,45.776385 C 15.944851,46.161924 16.330223,47.395039 17.641055,47.472145 C 18.084410,47.498226 18.548074,47.583258 18.978200,47.679385 C 19.096223,47.579045 19.349804,47.416342 19.875637,47.221657 C 19.001813,47.025296 17.997906,45.643879 17.136472,45.731333 z M 9.7551374,46.016062 C 9.8492674,46.189602 9.7775464,46.393159 9.6902624,46.551280 C 9.8695654,46.586717 10.051532,46.632695 10.238095,46.702655 C 11.471821,47.165304 12.551314,47.780853 12.782637,47.163989 C 12.985149,46.623955 10.991528,46.216235 9.7551374,46.016062 z M 28.902277,47.154980 C 28.078377,47.142464 25.369268,48.311130 24.461942,48.466897 C 24.474093,48.490472 24.503390,48.551595 24.503390,48.551595 C 24.503390,48.551595 25.197026,48.398037 25.890996,48.320927 C 26.157064,48.291365 26.206496,48.411217 26.150495,48.589437 C 26.270230,48.543164 26.389573,48.501135 26.507306,48.475906 C 27.586815,48.244585 29.360662,47.704126 29.129339,47.241479 C 29.100424,47.183648 29.021251,47.156786 28.902277,47.154980 z M 16.667929,47.818145 C 16.430582,47.804893 16.233410,47.878214 16.098470,48.090261 C 15.558716,48.938445 16.021301,48.860514 17.177920,49.014730 C 17.942092,49.116621 18.738536,49.285254 19.306180,49.411188 L 19.576492,48.803886 C 19.494067,48.807705 19.391276,48.802912 19.259327,48.784062 C 18.449694,48.668399 17.379973,47.857904 16.667929,47.818145 z M 29.392443,48.068635 C 29.367839,48.068824 29.332511,48.075803 29.284318,48.090261 C 28.760104,48.247524 27.632503,49.108894 26.599213,49.625636 C 26.776736,49.594204 26.859707,49.677670 26.874933,49.841887 C 27.887544,49.373586 29.737282,48.065997 29.392443,48.068635 z " id="path2256" style="fill:#000000;fill-opacity:0.20000000;fill-rule:evenodd;stroke:none;stroke-width:1.0000000px;stroke-linecap:butt;stroke-linejoin:miter;stroke-opacity:1.0000000"/>
    <path d="M 10.701019,39.453734 L 10.778127,42.075400 C 10.778127,42.075400 16.561212,40.764567 21.650327,39.916381 C 26.739444,39.068195 31.905666,38.451333 31.905666,38.451333 L 31.211696,35.675452 C 31.211696,35.675452 25.505719,36.292315 20.879249,37.140500 C 16.252781,37.988686 10.778127,39.453734 10.701019,39.453734 z " id="path2261" style="fill:#f5f5dc;fill-opacity:1.0000000;fill-rule:evenodd;stroke:#000000;stroke-width:0.36041674;stroke-linecap:butt;stroke-linejoin:miter;stroke-miterlimit:4.0000000;stroke-dasharray:none;stroke-opacity:1.0000000"/>
    <path d="M 7.2311661,50.865692 C 8.3106764,52.099417 8.6191074,52.253632 9.7757244,52.562064 M 7.9323963,48.876174 C 7.9323963,48.876174 8.4150004,50.292035 11.310622,51.235945 M 9.8528324,47.472948 C 9.8528324,47.472948 10.392587,47.550056 11.703420,48.244026 C 13.014253,48.937996 13.631115,49.554859 13.631115,49.554859 M 31.211696,49.709075 C 31.211696,49.709075 31.905666,48.244026 33.447824,47.164517 C 34.989978,46.085005 34.527334,46.624762 34.527334,46.624762 M 33.524930,50.865692 C 33.524930,50.865692 34.218902,50.171722 35.298409,48.783780 C 36.377921,47.395838 36.223705,47.395838 36.223705,47.395838 M 36.223705,50.711476 C 36.223705,50.711476 36.455029,49.400644 37.226107,48.783780 C 37.997185,48.166918 37.765861,48.321134 37.765861,48.321134" id="path2300" style="fill:none;fill-opacity:0.75000000;fill-rule:evenodd;stroke:#000000;stroke-width:1.0812503;stroke-linecap:round;stroke-linejoin:round;stroke-miterlimit:4.0000000;stroke-dasharray:none;stroke-opacity:1.0000000"/>
    <path d="M 21.958848,39.222206 L 20.030618,39.530363 C 19.876403,39.530363 20.724527,42.460598 21.110066,43.925646 C 21.291357,44.614549 21.335036,45.777401 21.331723,46.819792 C 21.654258,46.752254 22.011787,46.686696 22.421983,46.625167 C 22.806244,46.567527 23.160811,46.523412 23.488816,46.491812 C 23.488790,45.546542 23.444158,44.458424 23.268963,43.617490 C 22.883424,41.766900 21.958848,39.222206 21.958848,39.222206 z " id="path2325" style="fill:#556b2f;fill-opacity:1.0000000;fill-rule:evenodd;stroke:#000000;stroke-width:0.36041674;stroke-linecap:butt;stroke-linejoin:miter;stroke-miterlimit:4.0000000;stroke-dasharray:none;stroke-opacity:1.0000000"/>
    <rect height="4.4722395" id="rect2263" rx="4.9999819" ry="4.9999819" style="fill:url(#linearGradient1371);fill-opacity:1.0000000;fill-rule:nonzero;stroke:#000000;stroke-width:0.36041591;stroke-linejoin:bevel;stroke-miterlimit:4.0000000;stroke-dasharray:none;stroke-opacity:1.0000000" transform="matrix(0.990096,-0.140390,0.140390,0.990096,0.000000,0.000000)" width="5.7059612" x="12.781336" y="38.972294"/>
  </g>
</svg>
